<mxfile modified="2023-02-04T14:50:42.273Z" host="app.diagrams.net" agent="5.0 (Windows NT 10.0; Win64; x64) AppleWebKit/537.36 (KHTML, like Gecko) Chrome/109.0.0.0 Safari/537.36" etag="kRft7tEmcIwjrV30h9Qz" version="20.8.16" type="github">
  <diagram id="Ht1M8jgEwFfnCIfOTk4-" name="Page-1">
    <mxGraphModel dx="1258" dy="679" grid="1" gridSize="10" guides="1" tooltips="1" connect="1" arrows="1" fold="1" page="1" pageScale="1" pageWidth="1169" pageHeight="827" math="0" shadow="0">
      <root>
        <mxCell id="0" />
        <mxCell id="1" parent="0" />
        <mxCell id="UEzPUAAOIrF-is8g5C7q-74" value="AWS Cloud" style="points=[[0,0],[0.25,0],[0.5,0],[0.75,0],[1,0],[1,0.25],[1,0.5],[1,0.75],[1,1],[0.75,1],[0.5,1],[0.25,1],[0,1],[0,0.75],[0,0.5],[0,0.25]];outlineConnect=0;gradientColor=none;html=1;whiteSpace=wrap;fontSize=12;fontStyle=0;shape=mxgraph.aws4.group;grIcon=mxgraph.aws4.group_aws_cloud_alt;strokeColor=#232F3E;fillColor=none;verticalAlign=top;align=left;spacingLeft=30;fontColor=#232F3E;dashed=0;labelBackgroundColor=#ffffff;container=1;pointerEvents=0;collapsible=0;recursiveResize=0;" parent="1" vertex="1">
          <mxGeometry x="30" y="70" width="1295" height="740" as="geometry" />
        </mxCell>
        <mxCell id="0n0h4sU87K0MHA_mlyvU-6" style="edgeStyle=orthogonalEdgeStyle;rounded=0;orthogonalLoop=1;jettySize=auto;html=1;exitX=1;exitY=0.5;exitDx=0;exitDy=0;exitPerimeter=0;" parent="UEzPUAAOIrF-is8g5C7q-74" source="0n0h4sU87K0MHA_mlyvU-4" target="0n0h4sU87K0MHA_mlyvU-5" edge="1">
          <mxGeometry relative="1" as="geometry" />
        </mxCell>
        <mxCell id="0n0h4sU87K0MHA_mlyvU-4" value="" style="sketch=0;points=[[0,0,0],[0.25,0,0],[0.5,0,0],[0.75,0,0],[1,0,0],[0,1,0],[0.25,1,0],[0.5,1,0],[0.75,1,0],[1,1,0],[0,0.25,0],[0,0.5,0],[0,0.75,0],[1,0.25,0],[1,0.5,0],[1,0.75,0]];outlineConnect=0;fontColor=#232F3E;gradientColor=#4D72F3;gradientDirection=north;fillColor=#3334B9;strokeColor=#ffffff;dashed=0;verticalLabelPosition=bottom;verticalAlign=top;align=center;html=1;fontSize=12;fontStyle=0;aspect=fixed;shape=mxgraph.aws4.resourceIcon;resIcon=mxgraph.aws4.redshift;" parent="UEzPUAAOIrF-is8g5C7q-74" vertex="1">
          <mxGeometry x="280" y="80" width="68" height="68" as="geometry" />
        </mxCell>
        <mxCell id="0n0h4sU87K0MHA_mlyvU-5" value="" style="sketch=0;outlineConnect=0;fontColor=#232F3E;gradientColor=none;fillColor=#2E27AD;strokeColor=none;dashed=0;verticalLabelPosition=bottom;verticalAlign=top;align=center;html=1;fontSize=12;fontStyle=0;aspect=fixed;pointerEvents=1;shape=mxgraph.aws4.rds_oracle_instance;" parent="UEzPUAAOIrF-is8g5C7q-74" vertex="1">
          <mxGeometry x="500.75" y="74.75" width="78.5" height="78.5" as="geometry" />
        </mxCell>
        <mxCell id="0n0h4sU87K0MHA_mlyvU-12" style="edgeStyle=orthogonalEdgeStyle;rounded=0;orthogonalLoop=1;jettySize=auto;html=1;entryX=0;entryY=0.5;entryDx=0;entryDy=0;entryPerimeter=0;fontFamily=Times New Roman;" parent="UEzPUAAOIrF-is8g5C7q-74" target="0n0h4sU87K0MHA_mlyvU-4" edge="1">
          <mxGeometry relative="1" as="geometry">
            <mxPoint x="110" y="119" as="sourcePoint" />
          </mxGeometry>
        </mxCell>
        <mxCell id="0n0h4sU87K0MHA_mlyvU-3" value="Operación" style="text;html=1;align=center;verticalAlign=middle;resizable=0;points=[];autosize=1;strokeColor=none;fillColor=none;fontFamily=Times New Roman;" parent="UEzPUAAOIrF-is8g5C7q-74" vertex="1">
          <mxGeometry x="40" y="148" width="70" height="30" as="geometry" />
        </mxCell>
        <mxCell id="0n0h4sU87K0MHA_mlyvU-58" style="edgeStyle=orthogonalEdgeStyle;rounded=0;orthogonalLoop=1;jettySize=auto;html=1;entryX=0.676;entryY=0.408;entryDx=0;entryDy=0;entryPerimeter=0;fontFamily=Times New Roman;fontSize=16;" parent="UEzPUAAOIrF-is8g5C7q-74" source="UEzPUAAOIrF-is8g5C7q-107" target="0n0h4sU87K0MHA_mlyvU-55" edge="1">
          <mxGeometry relative="1" as="geometry" />
        </mxCell>
        <mxCell id="UEzPUAAOIrF-is8g5C7q-107" value="" style="rounded=0;whiteSpace=wrap;html=1;labelBackgroundColor=none;fillColor=none;dashed=1;container=1;pointerEvents=0;collapsible=0;recursiveResize=0;" parent="UEzPUAAOIrF-is8g5C7q-74" vertex="1">
          <mxGeometry x="30" y="58" width="690" height="120" as="geometry" />
        </mxCell>
        <mxCell id="0n0h4sU87K0MHA_mlyvU-8" value="ERP:&lt;br&gt;1. Oracle&lt;br&gt;2. SAP.&lt;br&gt;&lt;div style=&quot;&quot;&gt;&lt;span style=&quot;background-color: initial;&quot;&gt;3, Dynamics&lt;/span&gt;&lt;/div&gt;" style="text;html=1;align=left;verticalAlign=middle;resizable=0;points=[];autosize=1;strokeColor=none;fillColor=none;fontFamily=Times New Roman;" parent="UEzPUAAOIrF-is8g5C7q-107" vertex="1">
          <mxGeometry x="570" y="14.75" width="80" height="70" as="geometry" />
        </mxCell>
        <mxCell id="0n0h4sU87K0MHA_mlyvU-7" value="Transacción" style="text;html=1;align=center;verticalAlign=middle;resizable=0;points=[];autosize=1;strokeColor=none;fillColor=none;fontFamily=Times New Roman;" parent="UEzPUAAOIrF-is8g5C7q-107" vertex="1">
          <mxGeometry x="250" y="90" width="80" height="30" as="geometry" />
        </mxCell>
        <mxCell id="0n0h4sU87K0MHA_mlyvU-14" value="" style="sketch=0;outlineConnect=0;fontColor=#232F3E;gradientColor=none;fillColor=#232F3D;strokeColor=none;dashed=0;verticalLabelPosition=bottom;verticalAlign=top;align=center;html=1;fontSize=12;fontStyle=0;aspect=fixed;pointerEvents=1;shape=mxgraph.aws4.client;strokeWidth=8;fontFamily=Times New Roman;" parent="UEzPUAAOIrF-is8g5C7q-107" vertex="1">
          <mxGeometry x="20" y="14.75" width="78" height="76" as="geometry" />
        </mxCell>
        <mxCell id="0n0h4sU87K0MHA_mlyvU-62" value="Document" style="html=1;strokeColor=none;fillColor=#0079D6;labelPosition=center;verticalLabelPosition=middle;verticalAlign=top;align=center;fontSize=12;outlineConnect=0;spacingTop=-6;fontColor=#FFFFFF;sketch=0;shape=mxgraph.sitemap.document;strokeWidth=8;fontFamily=Times New Roman;" parent="UEzPUAAOIrF-is8g5C7q-107" vertex="1">
          <mxGeometry x="370" y="70" width="50" height="32" as="geometry" />
        </mxCell>
        <mxCell id="0n0h4sU87K0MHA_mlyvU-13" value="&lt;b&gt;&lt;font style=&quot;font-size: 15px;&quot;&gt;Client Environment&lt;/font&gt;&lt;/b&gt;" style="text;html=1;align=center;verticalAlign=middle;resizable=0;points=[];autosize=1;strokeColor=default;fillColor=none;fontFamily=Times New Roman;strokeWidth=8;" parent="UEzPUAAOIrF-is8g5C7q-74" vertex="1">
          <mxGeometry x="320" y="10" width="150" height="30" as="geometry" />
        </mxCell>
        <mxCell id="0n0h4sU87K0MHA_mlyvU-158" style="edgeStyle=orthogonalEdgeStyle;rounded=0;orthogonalLoop=1;jettySize=auto;html=1;entryX=0.5;entryY=1;entryDx=0;entryDy=0;fontFamily=Times New Roman;fontSize=18;" parent="UEzPUAAOIrF-is8g5C7q-74" source="0n0h4sU87K0MHA_mlyvU-9" target="0n0h4sU87K0MHA_mlyvU-133" edge="1">
          <mxGeometry relative="1" as="geometry" />
        </mxCell>
        <mxCell id="0n0h4sU87K0MHA_mlyvU-9" value="" style="rounded=0;whiteSpace=wrap;html=1;labelBackgroundColor=none;fillColor=none;dashed=1;container=1;pointerEvents=0;collapsible=0;recursiveResize=0;" parent="UEzPUAAOIrF-is8g5C7q-74" vertex="1">
          <mxGeometry x="60" y="280" width="730" height="430" as="geometry" />
        </mxCell>
        <mxCell id="0n0h4sU87K0MHA_mlyvU-54" style="edgeStyle=orthogonalEdgeStyle;rounded=0;orthogonalLoop=1;jettySize=auto;html=1;entryX=0.5;entryY=0;entryDx=0;entryDy=0;fontFamily=Times New Roman;fontSize=16;" parent="0n0h4sU87K0MHA_mlyvU-9" source="0n0h4sU87K0MHA_mlyvU-19" target="0n0h4sU87K0MHA_mlyvU-53" edge="1">
          <mxGeometry relative="1" as="geometry" />
        </mxCell>
        <mxCell id="0n0h4sU87K0MHA_mlyvU-19" value="" style="sketch=0;points=[[0,0,0],[0.25,0,0],[0.5,0,0],[0.75,0,0],[1,0,0],[0,1,0],[0.25,1,0],[0.5,1,0],[0.75,1,0],[1,1,0],[0,0.25,0],[0,0.5,0],[0,0.75,0],[1,0.25,0],[1,0.5,0],[1,0.75,0]];outlineConnect=0;fontColor=#232F3E;gradientColor=#F54749;gradientDirection=north;fillColor=#C7131F;strokeColor=#ffffff;dashed=0;verticalLabelPosition=bottom;verticalAlign=top;align=center;html=1;fontSize=12;fontStyle=0;aspect=fixed;shape=mxgraph.aws4.resourceIcon;resIcon=mxgraph.aws4.detective;strokeWidth=8;fontFamily=Times New Roman;" parent="0n0h4sU87K0MHA_mlyvU-9" vertex="1">
          <mxGeometry x="580" y="210" width="50" height="50" as="geometry" />
        </mxCell>
        <mxCell id="0n0h4sU87K0MHA_mlyvU-20" value="Agente de Seguridad" style="text;html=1;align=center;verticalAlign=middle;resizable=0;points=[];autosize=1;strokeColor=none;fillColor=none;fontSize=15;fontFamily=Times New Roman;" parent="0n0h4sU87K0MHA_mlyvU-9" vertex="1">
          <mxGeometry x="525" y="170" width="150" height="30" as="geometry" />
        </mxCell>
        <mxCell id="0n0h4sU87K0MHA_mlyvU-43" style="edgeStyle=orthogonalEdgeStyle;rounded=0;orthogonalLoop=1;jettySize=auto;html=1;fontFamily=Times New Roman;fontSize=16;" parent="0n0h4sU87K0MHA_mlyvU-9" source="0n0h4sU87K0MHA_mlyvU-23" target="0n0h4sU87K0MHA_mlyvU-36" edge="1">
          <mxGeometry relative="1" as="geometry" />
        </mxCell>
        <mxCell id="0n0h4sU87K0MHA_mlyvU-23" value="" style="sketch=0;points=[[0,0,0],[0.25,0,0],[0.5,0,0],[0.75,0,0],[1,0,0],[0,1,0],[0.25,1,0],[0.5,1,0],[0.75,1,0],[1,1,0],[0,0.25,0],[0,0.5,0],[0,0.75,0],[1,0.25,0],[1,0.5,0],[1,0.75,0]];outlineConnect=0;fontColor=#232F3E;gradientColor=#F78E04;gradientDirection=north;fillColor=#D05C17;strokeColor=#ffffff;dashed=0;verticalLabelPosition=bottom;verticalAlign=top;align=center;html=1;fontSize=12;fontStyle=0;aspect=fixed;shape=mxgraph.aws4.resourceIcon;resIcon=mxgraph.aws4.ec2;strokeWidth=8;fontFamily=Times New Roman;" parent="0n0h4sU87K0MHA_mlyvU-9" vertex="1">
          <mxGeometry x="70" y="62" width="78" height="78" as="geometry" />
        </mxCell>
        <mxCell id="0n0h4sU87K0MHA_mlyvU-24" value="Procesamiento Documentos&lt;br&gt;&amp;nbsp;en EC2" style="text;html=1;align=center;verticalAlign=middle;resizable=0;points=[];autosize=1;strokeColor=none;fillColor=none;fontSize=15;fontFamily=Times New Roman;" parent="0n0h4sU87K0MHA_mlyvU-9" vertex="1">
          <mxGeometry x="14" y="140" width="190" height="50" as="geometry" />
        </mxCell>
        <mxCell id="0n0h4sU87K0MHA_mlyvU-32" value="" style="edgeStyle=orthogonalEdgeStyle;rounded=0;orthogonalLoop=1;jettySize=auto;html=1;fontFamily=Times New Roman;fontSize=16;" parent="0n0h4sU87K0MHA_mlyvU-9" source="0n0h4sU87K0MHA_mlyvU-26" target="0n0h4sU87K0MHA_mlyvU-30" edge="1">
          <mxGeometry relative="1" as="geometry" />
        </mxCell>
        <mxCell id="0n0h4sU87K0MHA_mlyvU-26" value="" style="sketch=0;points=[[0,0,0],[0.25,0,0],[0.5,0,0],[0.75,0,0],[1,0,0],[0,1,0],[0.25,1,0],[0.5,1,0],[0.75,1,0],[1,1,0],[0,0.25,0],[0,0.5,0],[0,0.75,0],[1,0.25,0],[1,0.5,0],[1,0.75,0]];outlineConnect=0;fontColor=#232F3E;gradientColor=#4D72F3;gradientDirection=north;fillColor=#3334B9;strokeColor=#ffffff;dashed=0;verticalLabelPosition=bottom;verticalAlign=top;align=center;html=1;fontSize=12;fontStyle=0;aspect=fixed;shape=mxgraph.aws4.resourceIcon;resIcon=mxgraph.aws4.rds;strokeWidth=8;fontFamily=Times New Roman;" parent="0n0h4sU87K0MHA_mlyvU-9" vertex="1">
          <mxGeometry x="280" y="62" width="78" height="78" as="geometry" />
        </mxCell>
        <mxCell id="0n0h4sU87K0MHA_mlyvU-29" value="RDS Transacción" style="text;html=1;align=center;verticalAlign=middle;resizable=0;points=[];autosize=1;strokeColor=none;fillColor=none;fontSize=16;fontFamily=Times New Roman;" parent="0n0h4sU87K0MHA_mlyvU-9" vertex="1">
          <mxGeometry x="245" y="20" width="140" height="30" as="geometry" />
        </mxCell>
        <mxCell id="0n0h4sU87K0MHA_mlyvU-30" value="" style="outlineConnect=0;dashed=0;verticalLabelPosition=bottom;verticalAlign=top;align=center;html=1;shape=mxgraph.aws3.s3;fillColor=#E05243;gradientColor=none;strokeColor=default;strokeWidth=8;fontFamily=Times New Roman;fontSize=16;" parent="0n0h4sU87K0MHA_mlyvU-9" vertex="1">
          <mxGeometry x="570" width="70" height="70" as="geometry" />
        </mxCell>
        <mxCell id="0n0h4sU87K0MHA_mlyvU-35" value="Almacenamiento &lt;br&gt;información S3" style="text;html=1;align=center;verticalAlign=middle;resizable=0;points=[];autosize=1;strokeColor=none;fillColor=none;fontSize=16;fontFamily=Times New Roman;" parent="0n0h4sU87K0MHA_mlyvU-9" vertex="1">
          <mxGeometry x="540" y="70" width="130" height="50" as="geometry" />
        </mxCell>
        <mxCell id="0n0h4sU87K0MHA_mlyvU-45" style="edgeStyle=orthogonalEdgeStyle;rounded=0;orthogonalLoop=1;jettySize=auto;html=1;fontFamily=Times New Roman;fontSize=16;" parent="0n0h4sU87K0MHA_mlyvU-9" source="0n0h4sU87K0MHA_mlyvU-36" target="0n0h4sU87K0MHA_mlyvU-26" edge="1">
          <mxGeometry relative="1" as="geometry">
            <Array as="points">
              <mxPoint x="320" y="254" />
            </Array>
          </mxGeometry>
        </mxCell>
        <mxCell id="0n0h4sU87K0MHA_mlyvU-48" style="edgeStyle=orthogonalEdgeStyle;rounded=0;orthogonalLoop=1;jettySize=auto;html=1;fontFamily=Times New Roman;fontSize=16;" parent="0n0h4sU87K0MHA_mlyvU-9" source="0n0h4sU87K0MHA_mlyvU-36" target="0n0h4sU87K0MHA_mlyvU-19" edge="1">
          <mxGeometry relative="1" as="geometry" />
        </mxCell>
        <mxCell id="0n0h4sU87K0MHA_mlyvU-36" value="" style="verticalLabelPosition=bottom;sketch=0;aspect=fixed;html=1;verticalAlign=top;strokeColor=none;align=center;outlineConnect=0;shape=mxgraph.citrix.process;strokeWidth=8;fontFamily=Times New Roman;fontSize=16;" parent="0n0h4sU87K0MHA_mlyvU-9" vertex="1">
          <mxGeometry x="170" y="218" width="60.39" height="72" as="geometry" />
        </mxCell>
        <mxCell id="0n0h4sU87K0MHA_mlyvU-46" value="Parámetros y &lt;br&gt;configuraciones" style="text;html=1;align=center;verticalAlign=middle;resizable=0;points=[];autosize=1;strokeColor=none;fillColor=none;fontSize=16;fontFamily=Times New Roman;" parent="0n0h4sU87K0MHA_mlyvU-9" vertex="1">
          <mxGeometry x="30" y="240" width="130" height="50" as="geometry" />
        </mxCell>
        <mxCell id="0n0h4sU87K0MHA_mlyvU-53" value="Cumple&lt;br&gt;" style="rhombus;whiteSpace=wrap;html=1;fontFamily=Times New Roman;verticalAlign=top;sketch=0;gradientDirection=north;dashed=0;fontStyle=0;strokeWidth=8;fontSize=16;strokeColor=#d6b656;fillColor=#fff2cc;" parent="0n0h4sU87K0MHA_mlyvU-9" vertex="1">
          <mxGeometry x="570" y="330" width="80" height="80" as="geometry" />
        </mxCell>
        <mxCell id="0n0h4sU87K0MHA_mlyvU-159" value="&lt;b style=&quot;&quot;&gt;&lt;font color=&quot;#006600&quot;&gt;Validaciones&lt;br&gt;DIAN&lt;/font&gt;&lt;/b&gt;" style="text;html=1;align=center;verticalAlign=middle;resizable=0;points=[];autosize=1;strokeColor=none;fillColor=none;fontSize=18;fontFamily=Times New Roman;" parent="0n0h4sU87K0MHA_mlyvU-9" vertex="1">
          <mxGeometry x="435" y="340" width="120" height="60" as="geometry" />
        </mxCell>
        <mxCell id="0n0h4sU87K0MHA_mlyvU-21" value="" style="sketch=0;outlineConnect=0;fontColor=#232F3E;gradientColor=none;fillColor=#232F3D;strokeColor=none;dashed=0;verticalLabelPosition=bottom;verticalAlign=top;align=center;html=1;fontSize=12;fontStyle=0;aspect=fixed;pointerEvents=1;shape=mxgraph.aws4.users;strokeWidth=8;fontFamily=Times New Roman;" parent="UEzPUAAOIrF-is8g5C7q-74" vertex="1">
          <mxGeometry x="130" y="21" width="28" height="28" as="geometry" />
        </mxCell>
        <mxCell id="0n0h4sU87K0MHA_mlyvU-22" value="&lt;b&gt;&lt;font style=&quot;font-size: 15px;&quot;&gt;Supplier Process&lt;/font&gt;&lt;/b&gt;" style="text;html=1;align=center;verticalAlign=middle;resizable=0;points=[];autosize=1;strokeColor=default;fillColor=none;fontFamily=Times New Roman;strokeWidth=8;" parent="UEzPUAAOIrF-is8g5C7q-74" vertex="1">
          <mxGeometry x="330" y="241" width="130" height="30" as="geometry" />
        </mxCell>
        <mxCell id="0n0h4sU87K0MHA_mlyvU-50" value="" style="sketch=0;outlineConnect=0;fontColor=#232F3E;gradientColor=none;fillColor=#232F3D;strokeColor=none;dashed=0;verticalLabelPosition=bottom;verticalAlign=top;align=center;html=1;fontSize=12;fontStyle=0;aspect=fixed;pointerEvents=1;shape=mxgraph.aws4.email_2;strokeWidth=8;fontFamily=Times New Roman;" parent="UEzPUAAOIrF-is8g5C7q-74" vertex="1">
          <mxGeometry x="1000.5" y="344" width="48" height="30.15" as="geometry" />
        </mxCell>
        <mxCell id="0n0h4sU87K0MHA_mlyvU-59" style="edgeStyle=orthogonalEdgeStyle;rounded=0;orthogonalLoop=1;jettySize=auto;html=1;exitX=0.5;exitY=1;exitDx=0;exitDy=0;exitPerimeter=0;entryX=0.115;entryY=-0.012;entryDx=0;entryDy=0;entryPerimeter=0;fontFamily=Times New Roman;fontSize=16;" parent="UEzPUAAOIrF-is8g5C7q-74" source="0n0h4sU87K0MHA_mlyvU-55" target="0n0h4sU87K0MHA_mlyvU-9" edge="1">
          <mxGeometry relative="1" as="geometry" />
        </mxCell>
        <mxCell id="0n0h4sU87K0MHA_mlyvU-55" value="" style="sketch=0;html=1;dashed=0;whitespace=wrap;fillColor=#2875E2;strokeColor=#ffffff;points=[[0.005,0.63,0],[0.1,0.2,0],[0.9,0.2,0],[0.5,0,0],[0.995,0.63,0],[0.72,0.99,0],[0.5,1,0],[0.28,0.99,0]];verticalLabelPosition=bottom;align=center;verticalAlign=top;shape=mxgraph.kubernetes.icon;prIcon=api;strokeWidth=8;fontFamily=Times New Roman;fontSize=16;" parent="UEzPUAAOIrF-is8g5C7q-74" vertex="1">
          <mxGeometry x="110" y="190" width="70" height="62" as="geometry" />
        </mxCell>
        <mxCell id="0n0h4sU87K0MHA_mlyvU-60" value="Integración API" style="text;html=1;align=center;verticalAlign=middle;resizable=0;points=[];autosize=1;strokeColor=none;fillColor=none;fontSize=16;fontFamily=Times New Roman;" parent="UEzPUAAOIrF-is8g5C7q-74" vertex="1">
          <mxGeometry x="170" y="211" width="130" height="30" as="geometry" />
        </mxCell>
        <mxCell id="0n0h4sU87K0MHA_mlyvU-61" value="Usuarios" style="text;html=1;align=center;verticalAlign=middle;resizable=0;points=[];autosize=1;strokeColor=none;fillColor=none;fontSize=16;fontFamily=Times New Roman;" parent="UEzPUAAOIrF-is8g5C7q-74" vertex="1">
          <mxGeometry x="158" y="19" width="80" height="30" as="geometry" />
        </mxCell>
        <mxCell id="0n0h4sU87K0MHA_mlyvU-87" value="Email" style="text;html=1;align=center;verticalAlign=middle;resizable=0;points=[];autosize=1;strokeColor=none;fillColor=none;fontSize=16;fontFamily=Times New Roman;" parent="UEzPUAAOIrF-is8g5C7q-74" vertex="1">
          <mxGeometry x="990.5" y="377.69" width="60" height="30" as="geometry" />
        </mxCell>
        <mxCell id="0n0h4sU87K0MHA_mlyvU-90" value="&lt;u&gt;&lt;font style=&quot;font-size: 18px;&quot;&gt;Integrantes Taller #1&lt;/font&gt;&lt;/u&gt;" style="text;html=1;align=center;verticalAlign=middle;resizable=0;points=[];autosize=1;strokeColor=none;fillColor=none;fontSize=16;fontFamily=Times New Roman;" parent="UEzPUAAOIrF-is8g5C7q-74" vertex="1">
          <mxGeometry x="800" y="600" width="170" height="40" as="geometry" />
        </mxCell>
        <mxCell id="0n0h4sU87K0MHA_mlyvU-89" value="&lt;b&gt;Diego Posada Llano&lt;br&gt;Cristian Henao Restrepo&lt;br&gt;Luis Olaya Díaz&lt;/b&gt;" style="text;html=1;align=left;verticalAlign=middle;resizable=0;points=[];autosize=1;strokeColor=none;fillColor=none;fontSize=16;fontFamily=Times New Roman;" parent="UEzPUAAOIrF-is8g5C7q-74" vertex="1">
          <mxGeometry x="825.5" y="640" width="190" height="70" as="geometry" />
        </mxCell>
        <mxCell id="0n0h4sU87K0MHA_mlyvU-91" value="Consultas &lt;br&gt;Información" style="text;html=1;align=center;verticalAlign=middle;resizable=0;points=[];autosize=1;strokeColor=none;fillColor=none;fontSize=18;fontFamily=Times New Roman;" parent="UEzPUAAOIrF-is8g5C7q-74" vertex="1">
          <mxGeometry x="960.5" y="261" width="110" height="60" as="geometry" />
        </mxCell>
        <mxCell id="0n0h4sU87K0MHA_mlyvU-133" value="" style="rounded=0;whiteSpace=wrap;html=1;labelBackgroundColor=none;fillColor=none;dashed=1;container=1;pointerEvents=0;collapsible=0;recursiveResize=0;" parent="UEzPUAAOIrF-is8g5C7q-74" vertex="1">
          <mxGeometry x="955.5" y="49" width="125" height="400" as="geometry" />
        </mxCell>
        <mxCell id="0n0h4sU87K0MHA_mlyvU-63" value="" style="aspect=fixed;perimeter=ellipsePerimeter;html=1;align=center;shadow=0;dashed=0;spacingTop=3;image;image=img/lib/active_directory/laptop_client.svg;strokeColor=#FFFFFF;strokeWidth=8;fontFamily=Times New Roman;fontSize=16;" parent="0n0h4sU87K0MHA_mlyvU-133" vertex="1">
          <mxGeometry x="35" y="171" width="45" height="50" as="geometry" />
        </mxCell>
        <mxCell id="0n0h4sU87K0MHA_mlyvU-69" value="" style="points=[[0.35,0,0],[0.98,0.51,0],[1,0.71,0],[0.67,1,0],[0,0.795,0],[0,0.65,0]];verticalLabelPosition=bottom;sketch=0;html=1;verticalAlign=top;aspect=fixed;align=center;pointerEvents=1;shape=mxgraph.cisco19.user;fillColor=#005073;strokeColor=none;strokeWidth=8;fontFamily=Times New Roman;fontSize=16;" parent="0n0h4sU87K0MHA_mlyvU-133" vertex="1">
          <mxGeometry x="32.5" y="79" width="50" height="50" as="geometry" />
        </mxCell>
        <mxCell id="0n0h4sU87K0MHA_mlyvU-92" value="Usuarios&amp;nbsp;" style="text;html=1;align=center;verticalAlign=middle;resizable=0;points=[];autosize=1;strokeColor=none;fillColor=none;fontSize=18;fontFamily=Times New Roman;" parent="0n0h4sU87K0MHA_mlyvU-133" vertex="1">
          <mxGeometry x="17.5" y="121" width="90" height="40" as="geometry" />
        </mxCell>
        <mxCell id="0n0h4sU87K0MHA_mlyvU-151" value="&lt;b&gt;&lt;font style=&quot;font-size: 15px;&quot;&gt;Flujos de salida&lt;/font&gt;&lt;/b&gt;" style="text;html=1;align=center;verticalAlign=middle;resizable=0;points=[];autosize=1;strokeColor=default;fillColor=none;fontFamily=Times New Roman;strokeWidth=8;" parent="UEzPUAAOIrF-is8g5C7q-74" vertex="1">
          <mxGeometry x="955.5" y="10" width="120" height="30" as="geometry" />
        </mxCell>
        <mxCell id="0n0h4sU87K0MHA_mlyvU-160" value="&lt;font color=&quot;#000000&quot;&gt;&lt;b&gt;&lt;i&gt;Transacción de un documento electrónico y sus validaciones en la DIAN&lt;/i&gt;&lt;/b&gt;&lt;/font&gt;" style="text;html=1;align=center;verticalAlign=middle;resizable=0;points=[];autosize=1;strokeColor=none;fillColor=none;fontSize=18;fontFamily=Times New Roman;fontColor=#00FF00;" parent="1" vertex="1">
          <mxGeometry x="215" y="20" width="560" height="40" as="geometry" />
        </mxCell>
      </root>
    </mxGraphModel>
  </diagram>
</mxfile>
